<svg xmlns="http://www.w3.org/2000/svg" width="253.048" height="73.118" viewBox="0 0 253.048 73.118">
  <g id="Group_5" data-name="Group 5" transform="translate(-44.852 -73.349)">
    <g id="Group_2" data-name="Group 2" transform="translate(68.083 112.515)">
      <g id="Group_1" data-name="Group 1">
        <path id="Path_1" data-name="Path 1" d="M90.824,151.431l-7.508,7.7v8.8H80.877V134.455h2.439v21.519l20.9-21.519h2.964L92.45,149.662l15.732,18.268h-2.964Z" transform="translate(-80.877 -134.216)" fill="#23a48f"/>
        <path id="Path_2" data-name="Path 2" d="M133.009,134.455h2.438V167.93h-2.438Z" transform="translate(-99.391 -134.216)" fill="#23a48f"/>
        <path id="Path_3" data-name="Path 3" d="M158.185,136.656H146.134v-2.2h26.541v2.2H160.623V167.93h-2.438Z" transform="translate(-104.052 -134.216)" fill="#23a48f"/>
        <path id="Path_4" data-name="Path 4" d="M190.924,151.061c0-9.755,7.413-16.976,17.359-16.976,4.734,0,8.991,1.53,11.907,4.638l-1.53,1.578a14.015,14.015,0,0,0-10.282-3.97c-8.559,0-15.015,6.314-15.015,14.729s6.456,14.729,15.015,14.729a14.058,14.058,0,0,0,10.282-4.017l1.53,1.578a15.994,15.994,0,0,1-11.907,4.686C198.337,168.037,190.924,160.816,190.924,151.061Z" transform="translate(-119.959 -134.085)" fill="#23a48f"/>
        <path id="Path_5" data-name="Path 5" d="M276.246,134.455V167.93h-2.438V152.006h-22.38V167.93h-2.439V134.455h2.439v15.4h22.38v-15.4Z" transform="translate(-140.58 -134.216)" fill="#23a48f"/>
        <path id="Path_6" data-name="Path 6" d="M332.45,165.73v2.2h-23.1V134.455h22.38v2.2H311.792v13.2h17.837v2.153H311.792V165.73Z" transform="translate(-162.017 -134.216)" fill="#23a48f"/>
      </g>
    </g>
    <path id="Path_7" data-name="Path 7" d="M397.071,85.066a11.073,11.073,0,0,0-11.061,11.06v9.225H384V96.126a11.074,11.074,0,0,0-11.062-11.06H360.552V97.448c0,6.1,4.961,11.635,11.061,11.635h12.17V145.99l-22.762-29.075h-2.056V150.39H361.4V121.315l22.811,29.075h2.008V109.084h12.171c6.1,0,11.061-5.537,11.061-11.635V85.066Zm-15.189,19.866-.409.413-7.5-7.571L372.733,99l7.511,7.582-.385.388h-8.247c-4.934,0-8.948-4.589-8.948-9.523V87.177h10.269a8.959,8.959,0,0,1,8.949,8.949Zm25.458-7.484c0,4.934-4.014,9.523-8.947,9.523h-8.247l-.385-.388L397.272,99l-1.239-1.227-7.5,7.571-.409-.413V96.126a8.959,8.959,0,0,1,8.948-8.949H407.34Z" transform="translate(-111.553 -4.161)" fill="#23a48f"/>
    <g id="Group_3" data-name="Group 3" transform="translate(96.14 73.349)">
      <path id="Path_8" data-name="Path 8" d="M146.6,96.152a5.445,5.445,0,0,1-2.781,5.165,12.132,12.132,0,0,1-5.985,1.26c-4.407,0-7.569-1.838-9.4-5.465a19.513,19.513,0,0,1,0-15.954c1.831-3.626,4.993-5.465,9.4-5.465,3.82,0,6.436.866,7.775,2.575a5.1,5.1,0,0,1,.989,3.268v.587h2.345v-.587a7.524,7.524,0,0,0-1.466-4.684c-1.82-2.324-5.065-3.5-9.643-3.5a13.173,13.173,0,0,0-7.764,2.27,13,13,0,0,0-4.056,5.211,21.99,21.99,0,0,0,0,16.608,12.967,12.967,0,0,0,4.044,5.2,13.2,13.2,0,0,0,7.778,2.282c4.616,0,7.865-1.283,9.656-3.812a8.325,8.325,0,0,0,1.454-4.959V90.536h-11.7V92.88H146.6Z" transform="translate(-124.386 -73.349)" fill="#23a48f"/>
      <path id="Path_9" data-name="Path 9" d="M192.332,84.27h-4.385v2.343h2.045v14.769a4.259,4.259,0,0,1-2.274,4.069,10.356,10.356,0,0,1-4.965,1.009,10.526,10.526,0,0,1-5.017-1.009,4.257,4.257,0,0,1-2.279-4.069V84.27h-4.385v2.343h2.044v14.769a6.9,6.9,0,0,0,1.281,4.2h0c1.572,2.136,4.382,3.218,8.355,3.218a11.609,11.609,0,0,0,6.782-1.734l.457-.323V108.8h4.385V106.46h-2.045Z" transform="translate(-140.966 -77.227)" fill="#23a48f"/>
      <path id="Path_10" data-name="Path 10" d="M216.848,77.819a1.755,1.755,0,1,0-1.754-1.755A1.758,1.758,0,0,0,216.848,77.819Z" transform="translate(-156.6 -73.69)" fill="#23a48f"/>
      <path id="Path_11" data-name="Path 11" d="M218.211,84.27h-4.385v2.342h2.044V106.46h-2.044V108.8h6.429V106.46h-2.044Z" transform="translate(-156.149 -77.228)" fill="#23a48f"/>
      <path id="Path_12" data-name="Path 12" d="M234.316,74.311h-4.385v2.341h2.044v26.271h-2.044v2.341h6.429v-2.341h-2.044Z" transform="translate(-161.869 -73.691)" fill="#23a48f"/>
      <path id="Path_13" data-name="Path 13" d="M255.115,102.669a4.227,4.227,0,0,1-1.486.255,2.943,2.943,0,0,1-2.393-.92,4.468,4.468,0,0,1-.816-2.933v-16h5.49V80.733h-5.49V74.311h-2.34v6.422h-2.045v2.343h2.045v16a8.181,8.181,0,0,0,.633,3.334,5.132,5.132,0,0,0,4.916,2.859,6.276,6.276,0,0,0,2.379-.451l.566-.226-.94-2.113Z" transform="translate(-167.588 -73.691)" fill="#23a48f"/>
      <rect id="Rectangle_1" data-name="Rectangle 1" width="9.933" height="2.34" transform="translate(93.344 14.927)" fill="#23a48f"/>
      <path id="Path_14" data-name="Path 14" d="M294.28,102.923h-3.095v2.341h8.472v-2.341h-3.036V90.957h15.124v-2.34H296.621V76.652h16.752v3.037h2.342V74.311H291.185v2.341h3.095Z" transform="translate(-183.623 -73.691)" fill="#23a48f"/>
      <path id="Path_15" data-name="Path 15" d="M348.04,84.582a9.772,9.772,0,0,0-2.49-.312,9.16,9.16,0,0,0-4.87,1.16l-.442.273V84.27h-4.385v2.343H337.9V106.46h-2.045V108.8h6.429V106.46H340.24V90.989a4.58,4.58,0,0,1,.607-2.486c.816-1.272,2.354-1.891,4.7-1.891a6.583,6.583,0,0,1,1.875.268l.589.176.58-2.321Z" transform="translate(-199.486 -77.227)" fill="#23a48f"/>
    </g>
    <g id="Group_4" data-name="Group 4" transform="translate(44.852 78.322)">
      <path id="Path_16" data-name="Path 16" d="M49.136,90.014v14.678a4.578,4.578,0,0,0,.242,1.677,2.144,2.144,0,0,0,.615.894,1.614,1.614,0,0,0,.82.355,7.307,7.307,0,0,0,.894.056q.558,0,1.006-.019a2.129,2.129,0,0,0,.633-.093v.745l-.653.074a11.68,11.68,0,0,1-1.173.037,3.34,3.34,0,0,1-2.217-.764,3.533,3.533,0,0,1-.912-2.814V90.014h-3.54v-.745h3.54V83.234h.745v6.035h4.322v.745Z" transform="translate(-44.852 -81.833)" fill="#23a48f"/>
      <path id="Path_17" data-name="Path 17" d="M62.242,81.061h.745V93.244h.074a6.766,6.766,0,0,1,.838-2.049,6.457,6.457,0,0,1,3.483-2.737,7.969,7.969,0,0,1,2.571-.391,8.055,8.055,0,0,1,2.738.447,6.032,6.032,0,0,1,2.161,1.321,5.961,5.961,0,0,1,1.415,2.161,8.1,8.1,0,0,1,.5,2.963v12.7h-.745V95.069a7.49,7.49,0,0,0-.484-2.851,5.325,5.325,0,0,0-1.323-1.936,5.222,5.222,0,0,0-1.937-1.119,7.571,7.571,0,0,0-2.329-.353,6.672,6.672,0,0,0-3.018.652,6.41,6.41,0,0,0-2.179,1.75,7.67,7.67,0,0,0-1.323,2.552,10.32,10.32,0,0,0-.447,3.055v10.842h-.745Z" transform="translate(-51.028 -81.061)" fill="#23a48f"/>
      <path id="Path_18" data-name="Path 18" d="M90.14,101.4a16.2,16.2,0,0,0,.448,3.6,8,8,0,0,0,1.322,2.887,6.433,6.433,0,0,0,2.329,1.937,8.679,8.679,0,0,0,8.457-.894,7.167,7.167,0,0,0,2.5-4.733h.745a8.412,8.412,0,0,1-.875,2.963,7.3,7.3,0,0,1-1.77,2.234,7.677,7.677,0,0,1-2.477,1.4,9.193,9.193,0,0,1-3.037.485,8.4,8.4,0,0,1-3.819-.726,6.877,6.877,0,0,1-2.589-2.124,9.3,9.3,0,0,1-1.49-3.2,15.564,15.564,0,0,1-.484-3.968A11.876,11.876,0,0,1,90.1,97a9.9,9.9,0,0,1,1.862-3.148A7.82,7.82,0,0,1,94.63,91.9a7.67,7.67,0,0,1,3.148-.671,8.14,8.14,0,0,1,3.856.856,7.6,7.6,0,0,1,2.646,2.272,9.476,9.476,0,0,1,1.49,3.241,13.24,13.24,0,0,1,.391,3.8Zm15.275-.744a11.363,11.363,0,0,0-.485-3.336,8.3,8.3,0,0,0-1.434-2.775,6.789,6.789,0,0,0-2.365-1.881,7.42,7.42,0,0,0-3.279-.689,7.2,7.2,0,0,0-2.925.6A6.919,6.919,0,0,0,92.544,94.3a8.961,8.961,0,0,0-1.658,2.737,11.527,11.527,0,0,0-.745,3.615Z" transform="translate(-60.671 -84.671)" fill="#23a48f"/>
    </g>
  </g>
</svg>
